<svg width="180" height="180" viewBox="0 0 180 180" fill="none" xmlns="http://www.w3.org/2000/svg">
  <defs>
    <filter id="shadow">
      <feDropShadow dx="0" dy="3" stdDeviation="8" flood-opacity="0.12"/>
    </filter>
  </defs>
  
  <!-- Background -->
  <rect width="180" height="180" rx="40" fill="#55c500"/>
  
  <!-- Heroicons book-open icon -->
  <g filter="url(#shadow)">
    <path d="M32 42c0-4.6 3.8-8.4 8.4-8.4h33.6c4.6 0 8.4 3.8 8.4 8.4v101c0 1.5-1.3 2.8-2.8 2.8-4.6 0-8.4 3.8-8.4 8.4 0 1.5-1.3 2.8-2.8 2.8H40.4c-4.6 0-8.4-3.8-8.4-8.4V42z" 
          fill="#ffffff" fill-opacity="0.97"/>
    <path d="M97.6 42c0-4.6 3.8-8.4 8.4-8.4h33.6c4.6 0 8.4 3.8 8.4 8.4v98c0 4.6-3.8 8.4-8.4 8.4H106c-1.5 0-2.8-1.3-2.8-2.8 0-4.6-3.8-8.4-8.4-8.4-1.5 0-2.8-1.3-2.8-2.8V42z" 
          fill="#ffffff" fill-opacity="0.97"/>
  </g>
  
  <!-- Center spine -->
  <line x1="90" y1="33.6" x2="90" y2="145.6" stroke="#ffffff" stroke-width="2" opacity="0.25" stroke-linecap="round"/>
</svg>

