<svg width="180" height="180" viewBox="0 0 180 180" fill="none" xmlns="http://www.w3.org/2000/svg">
  <defs>
    <filter id="shadow">
      <feDropShadow dx="0" dy="3" stdDeviation="6" flood-opacity="0.15"/>
    </filter>
  </defs>
  
  <!-- Background -->
  <rect width="180" height="180" rx="40" fill="#55c500"/>
  
  <!-- Book with bookmark -->
  <g filter="url(#shadow)">
    <path d="M 42 28 C 39 28 35 31 35 35 L 35 145 C 35 148 39 152 42 152 L 138 152 C 141 152 145 148 145 145 L 145 35 C 145 31 141 28 138 28 L 98 28 L 90 42 L 82 28 Z" 
          fill="#ffffff"/>
  </g>
  
  <!-- Book spine -->
  <line x1="90" y1="42" x2="90" y2="152" stroke="#55c500" stroke-width="4" stroke-linecap="round"/>
  
  <!-- Page lines left -->
  <g opacity="0.5">
    <line x1="49" y1="56" x2="84" y2="56" stroke="#cccccc" stroke-width="2.5" stroke-linecap="round"/>
    <line x1="49" y1="70" x2="84" y2="70" stroke="#cccccc" stroke-width="2.5" stroke-linecap="round"/>
    <line x1="49" y1="84" x2="84" y2="84" stroke="#cccccc" stroke-width="2.5" stroke-linecap="round"/>
    <line x1="49" y1="98" x2="77" y2="98" stroke="#cccccc" stroke-width="2.5" stroke-linecap="round"/>
  </g>
  
  <!-- Page lines right -->
  <g opacity="0.5">
    <line x1="96" y1="56" x2="131" y2="56" stroke="#cccccc" stroke-width="2.5" stroke-linecap="round"/>
    <line x1="96" y1="70" x2="131" y2="70" stroke="#cccccc" stroke-width="2.5" stroke-linecap="round"/>
    <line x1="96" y1="84" x2="131" y2="84" stroke="#cccccc" stroke-width="2.5" stroke-linecap="round"/>
    <line x1="103" y1="98" x2="131" y2="98" stroke="#cccccc" stroke-width="2.5" stroke-linecap="round"/>
  </g>
</svg>

