<svg width="32" height="32" viewBox="0 0 32 32" fill="none" xmlns="http://www.w3.org/2000/svg">
  <defs>
    <linearGradient id="bgGrad" x1="0%" y1="0%" x2="100%" y2="100%">
      <stop offset="0%" style="stop-color:#5fda5f;stop-opacity:1" />
      <stop offset="100%" style="stop-color:#3eb83e;stop-opacity:1" />
    </linearGradient>
    <linearGradient id="pageGrad" x1="0%" y1="0%" x2="100%" y2="0%">
      <stop offset="0%" style="stop-color:#ffffff;stop-opacity:1" />
      <stop offset="100%" style="stop-color:#f5f5f5;stop-opacity:1" />
    </linearGradient>
    <filter id="glow">
      <feGaussianBlur stdDeviation="1" result="coloredBlur"/>
      <feMerge>
        <feMergeNode in="coloredBlur"/>
        <feMergeNode in="SourceGraphic"/>
      </feMerge>
    </filter>
  </defs>
  
  <!-- Background -->
  <rect width="32" height="32" rx="8" fill="url(#bgGrad)"/>
  
  <!-- Open book with 3D effect -->
  <!-- Left page with curve -->
  <path d="M 7 7 Q 7 6 8 6 L 15 6 Q 15.5 6 15.8 6.3 L 16 7 L 15.8 23.7 Q 15.5 24 15 24 L 8 24 Q 7 24 7 23 Z" 
        fill="url(#pageGrad)" stroke="none" filter="url(#glow)"/>
  <!-- Right page with curve -->
  <path d="M 16 7 L 16.2 6.3 Q 16.5 6 17 6 L 24 6 Q 25 6 25 7 L 25 23 Q 25 24 24 24 L 17 24 Q 16.5 24 16.2 23.7 Z" 
        fill="url(#pageGrad)" stroke="none" filter="url(#glow)"/>
  
  <!-- Spine glow -->
  <line x1="16" y1="6" x2="16" y2="24" stroke="#ffffff" stroke-width="1.5" opacity="0.6"/>
  
  <!-- Minimal page lines -->
  <line x1="9" y1="11" x2="14" y2="10.5" stroke="#e0e0e0" stroke-width="0.5" opacity="0.6"/>
  <line x1="9" y1="14" x2="14" y2="13.5" stroke="#e0e0e0" stroke-width="0.5" opacity="0.4"/>
  <line x1="18" y1="10.5" x2="23" y2="11" stroke="#e0e0e0" stroke-width="0.5" opacity="0.6"/>
  <line x1="18" y1="13.5" x2="23" y2="14" stroke="#e0e0e0" stroke-width="0.5" opacity="0.4"/>
</svg>

