<svg width="512" height="512" viewBox="0 0 512 512" fill="none" xmlns="http://www.w3.org/2000/svg">
  <defs>
    <filter id="shadow">
      <feDropShadow dx="0" dy="8" stdDeviation="16" flood-opacity="0.15"/>
    </filter>
  </defs>
  
  <!-- Background -->
  <rect width="512" height="512" rx="115" fill="#55c500"/>
  
  <!-- Book with bookmark - Material Design inspired -->
  <g filter="url(#shadow)">
    <path d="M 120 80 C 110 80 100 90 100 100 L 100 412 C 100 422 110 432 120 432 L 392 432 C 402 432 412 422 412 412 L 412 100 C 412 90 402 80 392 80 L 280 80 L 256 120 L 232 80 Z" 
          fill="#ffffff"/>
  </g>
  
  <!-- Book spine/center -->
  <line x1="256" y1="120" x2="256" y2="432" stroke="#55c500" stroke-width="12" stroke-linecap="round"/>
  
  <!-- Page lines left -->
  <g opacity="0.5">
    <line x1="140" y1="160" x2="240" y2="160" stroke="#cccccc" stroke-width="8" stroke-linecap="round"/>
    <line x1="140" y1="200" x2="240" y2="200" stroke="#cccccc" stroke-width="8" stroke-linecap="round"/>
    <line x1="140" y1="240" x2="240" y2="240" stroke="#cccccc" stroke-width="8" stroke-linecap="round"/>
    <line x1="140" y1="280" x2="220" y2="280" stroke="#cccccc" stroke-width="8" stroke-linecap="round"/>
  </g>
  
  <!-- Page lines right -->
  <g opacity="0.5">
    <line x1="272" y1="160" x2="372" y2="160" stroke="#cccccc" stroke-width="8" stroke-linecap="round"/>
    <line x1="272" y1="200" x2="372" y2="200" stroke="#cccccc" stroke-width="8" stroke-linecap="round"/>
    <line x1="272" y1="240" x2="372" y2="240" stroke="#cccccc" stroke-width="8" stroke-linecap="round"/>
    <line x1="292" y1="280" x2="372" y2="280" stroke="#cccccc" stroke-width="8" stroke-linecap="round"/>
  </g>
</svg>

